<svg height="131.249995pt" preserveAspectRatio="xMidYMid meet" viewBox="0 0 375 131.249995" width="375pt" xmlns="http://www.w3.org/2000/svg" xmlns:xlink="http://www.w3.org/1999/xlink" zoomAndPan="magnify"><clipPath id="a"><path d="m235 50h41v17.5h-41zm0 0"/></clipPath><clipPath id="b"><path d="m185.8125 0h178.34375v67.5h-178.34375zm0 0"/></clipPath><g fill="#051d40"><path d="m28.015625 0-1.921875-7.28125h-12.609375l-1.96875 7.28125h-11.515625l12.671875-38.96875h13.984375l12.828125 38.96875zm-4.09375-15.875-1.671875-6.375c-.386719-1.414062-.859375-3.242188-1.421875-5.484375-.554687-2.25-.917969-3.863281-1.09375-4.84375-.167969.90625-.484375 2.398437-.953125 4.46875-.46875 2.0625-1.507812 6.140625-3.109375 12.234375zm0 0" transform="translate(10.368474 118.411651)"/><path d="m37.140625-20.234375c0 6.480469-1.789063 11.476563-5.359375 14.984375-3.5625 3.5-8.574219 5.25-15.03125 5.25h-12.5625v-38.8125h13.4375c6.226562 0 11.035156 1.59375 14.421875 4.78125 3.394531 3.179688 5.09375 7.777344 5.09375 13.796875zm-10.875.375c0-3.5625-.710937-6.195313-2.125-7.90625-1.40625-1.71875-3.542969-2.578125-6.40625-2.578125h-3.046875v21.734375h2.328125c3.1875 0 5.523437-.921875 7.015625-2.765625 1.488281-1.851562 2.234375-4.679688 2.234375-8.484375zm0 0" transform="translate(49.844938 118.411651)"/><path d="m26-38.8125h11.734375l-12.71875 38.8125h-12.34375l-12.671875-38.8125h11.78125l5.296875 19.671875c1.09375 4.375 1.691406 7.417969 1.796875 9.125.125-1.238281.367188-2.785156.734375-4.640625.375-1.851562.707031-3.3125 1-4.375zm0 0" transform="translate(89.746166 118.411651)"/><path d="m27.234375 0h-23.046875v-38.8125h23.046875v8.40625h-12.546875v6.109375h11.625v8.421875h-11.625v7.328125h12.546875zm0 0" transform="translate(127.47048 118.411651)"/><path d="m41.15625 0h-13.75l-14.1875-27.34375h-.234375c.332031 4.304688.5 7.585938.5 9.84375v17.5h-9.296875v-38.8125h13.703125l14.125 26.96875h.15625c-.242187-3.90625-.359375-7.046875-.359375-9.421875v-17.546875h9.34375zm0 0" transform="translate(157.310121 118.411651)"/><path d="m21.3125 0h-10.484375v-30.234375h-9.46875v-8.578125h29.40625v8.578125h-9.453125zm0 0" transform="translate(202.653632 118.411651)"/><path d="m37.203125-38.8125v23.359375c0 5.085937-1.445313 9.023437-4.328125 11.8125-2.875 2.78125-7.023438 4.171875-12.4375 4.171875-5.292969 0-9.359375-1.351562-12.203125-4.0625-2.835937-2.707031-4.25-6.601562-4.25-11.6875v-23.59375h10.53125v22.78125c0 2.742188.515625 4.730469 1.546875 5.96875 1.03125 1.242188 2.546875 1.859375 4.546875 1.859375 2.132813 0 3.679687-.613281 4.640625-1.84375.96875-1.226563 1.453125-3.242187 1.453125-6.046875v-22.71875zm0 0" transform="translate(234.776376 118.411651)"/><path d="m14.6875-14.125v14.125h-10.5v-38.8125h12.71875c10.550781 0 15.828125 3.824219 15.828125 11.46875 0 4.492188-2.195313 7.96875-6.578125 10.4375l11.3125 16.90625h-11.90625l-8.21875-14.125zm0-7.890625h1.953125c3.664063 0 5.5-1.617187 5.5-4.859375 0-2.664062-1.796875-4-5.390625-4h-2.0625zm0 0" transform="translate(275.925347 118.411651)"/><path d="m27.234375 0h-23.046875v-38.8125h23.046875v8.40625h-12.546875v6.109375h11.625v8.421875h-11.625v7.328125h12.546875zm0 0" transform="translate(312.720475 118.411651)"/><path d="m29.578125-11.78125c0 2.40625-.617187 4.542969-1.84375 6.40625-1.21875 1.867188-2.980469 3.320312-5.28125 4.359375-2.292969 1.03125-4.992187 1.546875-8.09375 1.546875-2.585937 0-4.75-.183594-6.5-.546875s-3.574219-.992187-5.46875-1.890625v-9.34375c2 1.023438 4.078125 1.824219 6.234375 2.40625 2.164062.574219 4.148438.859375 5.953125.859375 1.550781 0 2.691406-.269531 3.421875-.8125.726562-.539063 1.09375-1.238281 1.09375-2.09375 0-.53125-.148438-.992187-.4375-1.390625-.292969-.394531-.761719-.796875-1.40625-1.203125-.648438-.40625-2.371094-1.238281-5.171875-2.5-2.53125-1.144531-4.433594-2.257813-5.703125-3.34375-1.261719-1.082031-2.199219-2.320313-2.8125-3.71875-.605469-1.394531-.90625-3.050781-.90625-4.96875 0-3.570313 1.296875-6.359375 3.890625-8.359375 2.601563-2 6.179687-3 10.734375-3 4.019531 0 8.117188.929688 12.296875 2.78125l-3.21875 8.109375c-3.625-1.664063-6.757813-2.5-9.390625-2.5-1.367188 0-2.359375.242187-2.984375.71875-.617187.480469-.921875 1.074219-.921875 1.78125 0 .761719.390625 1.445313 1.171875 2.046875.789063.59375 2.929687 1.6875 6.421875 3.28125 3.34375 1.511719 5.664062 3.132812 6.96875 4.859375 1.300781 1.71875 1.953125 3.890625 1.953125 6.515625zm0 0" transform="translate(342.560116 118.411651)"/></g><g clip-path="url(#a)"><path d="m235.269531 68.582031h8.699219l11.597656-9.773437 11.597656 9.773437h8.703126l-20.300782-18.523437zm0 0" fill="#051d40"/></g><g clip-path="url(#b)"><path d="m301.160156 14.039062 54.820313 54.542969h8.089843l-62.910156-63.402343-19.144531 19.453124-24.980469-25.109374-71.148437 69.058593h8.433593l62.714844-60.582031 20.761719 20.871094-10.203125 10.253906-11.386719-11.449219-42.257812 40.90625h8.351562l33.90625-32.703125 23.394531 23.519532.015626.015624.800781.804688 1.128906 1.128906 3.378906-3.394531 4.453125-4.472656 17.214844 15.101562h8.347656-.1875l-21.769531-19.683593 7.699219-7.734376 29.566406 27.417969h8.167969l-37.734375-35.621093-19.613282 19.710937-9.066406-9.117187zm0 0" fill="#051d40"/></g><path d="m27.0625-38.765625c-3.148438 0-5.601562 1.289063-7.359375 3.859375-1.761719 2.574219-2.640625 6.125-2.640625 10.65625 0 9.40625 3.578125 14.109375 10.734375 14.109375 2.164063 0 4.257813-.296875 6.28125-.890625 2.03125-.601562 4.070313-1.332031 6.125-2.1875v11.171875c-4.085937 1.8125-8.699219 2.71875-13.84375 2.71875-7.386719 0-13.046875-2.140625-16.984375-6.421875-3.929688-4.28125-5.890625-10.46875-5.890625-18.5625 0-5.0625.953125-9.507812 2.859375-13.34375 1.90625-3.84375 4.644531-6.796875 8.21875-8.859375 3.582031-2.0625 7.789062-3.09375 12.625-3.09375 5.289062 0 10.34375 1.152344 15.15625 3.453125l-4.046875 10.40625c-1.804687-.851562-3.609375-1.566406-5.421875-2.140625-1.804688-.582031-3.742188-.875-5.8125-.875zm0 0" fill="#051d40" transform="translate(7.314029 66.804672)"/><path d="m51.046875-24.515625c0 8.230469-2.023437 14.484375-6.0625 18.765625-4.03125 4.28125-9.9375 6.421875-17.71875 6.421875-7.679687 0-13.5625-2.148437-17.65625-6.453125-4.085937-4.300781-6.125-10.566406-6.125-18.796875 0-8.144531 2.03125-14.363281 6.09375-18.65625 4.070313-4.289063 9.988281-6.4375 17.75-6.4375 7.78125 0 13.675781 2.132813 17.6875 6.390625 4.019531 4.261719 6.03125 10.515625 6.03125 18.765625zm-33.65625 0c0 9.460937 3.289063 14.1875 9.875 14.1875 3.34375 0 5.820313-1.144531 7.4375-3.4375 1.613281-2.300781 2.421875-5.882813 2.421875-10.75 0-4.882813-.824219-8.488281-2.46875-10.8125-1.636719-2.332031-4.078125-3.5-7.328125-3.5-6.625 0-9.9375 4.773437-9.9375 14.3125zm0 0" fill="#051d40" transform="translate(57.918638 66.804672)"/><path d="m5.28125 0v-48.90625h13.21875v38.234375h18.828125v10.671875zm0 0" fill="#051d40" transform="translate(118.654615 66.804672)"/></svg>